<?xml version="1.0" encoding="UTF-8" standalone="no"?>
<!-- Created with Inkscape (http://www.inkscape.org/) -->

<svg
   width="91.246986mm"
   height="91.246986mm"
   viewBox="0 0 91.246986 91.246986"
   version="1.1"
   id="svg1009"
   sodipodi:docname="A.svg"
   inkscape:version="1.2.2 (732a01da63, 2022-12-09)"
   xml:space="preserve"
   xmlns:inkscape="http://www.inkscape.org/namespaces/inkscape"
   xmlns:sodipodi="http://sodipodi.sourceforge.net/DTD/sodipodi-0.dtd"
   xmlns="http://www.w3.org/2000/svg"
   xmlns:svg="http://www.w3.org/2000/svg"><sodipodi:namedview
     id="namedview1011"
     pagecolor="#505050"
     bordercolor="#ffffff"
     borderopacity="1"
     inkscape:showpageshadow="0"
     inkscape:pageopacity="0"
     inkscape:pagecheckerboard="1"
     inkscape:deskcolor="#505050"
     inkscape:document-units="mm"
     showgrid="false"
     inkscape:zoom="1.0456808"
     inkscape:cx="68.376508"
     inkscape:cy="288.32891"
     inkscape:window-width="1920"
     inkscape:window-height="991"
     inkscape:window-x="-9"
     inkscape:window-y="-9"
     inkscape:window-maximized="1"
     inkscape:current-layer="layer1" /><defs
     id="defs1006"><clipPath
       clipPathUnits="userSpaceOnUse"
       id="clipPath80534"><g
         id="g80538"
         transform="matrix(2.8346528,0,0,-2.8346528,153.77903,694.22218)"><path
           d="M -54.249688,-52.093794 H 155.74993 V 244.90555 H -54.249688 Z"
           id="path80536"
           style="stroke-width:0.352777" /></g></clipPath></defs><g
     inkscape:label="Layer 1"
     inkscape:groupmode="layer"
     id="layer1"
     transform="translate(-42.403011,-106.2759)"><path
       style="fill:#ffffff;stroke-width:0.222567"
       d="m 65.611046,190.98843 c -0.388175,-0.59242 -1.06286,-4.67571 -0.880519,-5.32902 0.07398,-0.26509 1.571092,-3.38648 3.326903,-6.93641 1.755811,-3.54994 3.867092,-7.85662 4.691736,-9.57039 0.824644,-1.71376 4.145606,-8.42416 7.379915,-14.91198 3.234305,-6.48782 6.089086,-12.27745 6.343957,-12.86585 l 0.463398,-1.06983 -0.787635,-0.822 c -1.123147,-1.17215 -1.185856,-1.58498 -0.469853,-3.09323 0.75497,-1.59033 1.141555,-2.06883 1.671438,-2.06883 0.533041,0 0.51864,-0.10971 -0.126118,-0.96075 -0.295219,-0.38967 -0.795899,-1.27776 -1.112622,-1.97353 -2.323544,-5.10428 -1.242888,-11.38815 2.592912,-15.07744 4.571918,-4.39728 11.241698,-5.1188 16.517552,-1.7868 3.8583,2.43675 6.13102,6.52307 6.13102,11.02351 0,2.45248 -0.29936,3.86261 -1.23138,5.80034 -2.07414,4.31233 -6.29277,7.23826 -10.943304,7.58998 -1.356242,0.10262 -1.630277,0.18687 -1.563596,0.48097 0.0445,0.19614 -0.352659,1.23297 -0.88251,2.30408 -0.954872,1.93029 -0.970727,1.94747 -1.797233,1.94747 -0.458623,0 -1.165927,-0.0953 -1.571782,-0.21164 l -0.737919,-0.21164 -3.222566,6.61043 c -1.772411,3.63575 -3.964675,8.11276 -4.871692,9.94894 -0.907019,1.83619 -2.654605,5.37297 -3.883526,7.85957 -1.228923,2.48659 -2.234404,4.64855 -2.234404,4.80435 0,0.24739 3.185235,2.07085 5.281959,3.02376 0.400042,0.18181 0.727348,0.46123 0.727348,0.62093 0,0.46886 -0.88346,2.06452 -1.213084,2.191 -0.166491,0.0639 -0.926864,-0.20866 -1.689717,-0.6057 -1.331852,-0.69315 -1.399074,-0.70536 -1.690343,-0.30702 -0.63915,0.8741 -0.390788,1.14005 2.493514,2.67016 1.538261,0.81604 2.848733,1.61895 2.912157,1.78423 0.136329,0.35528 -1.853215,4.09662 -2.261852,4.25341 -0.154701,0.0594 -1.505606,-0.50579 -3.002013,-1.25592 -1.496406,-0.75012 -2.866441,-1.30796 -3.044526,-1.2396 -0.202149,0.0776 -0.297285,0.35466 -0.253241,0.73757 0.05416,0.4709 0.31357,0.74437 1.117147,1.1777 0.575632,0.3104 1.114823,0.63257 1.1982,0.71596 0.08337,0.0832 -0.119529,0.70577 -0.450911,1.38309 -0.790384,1.61549 -1.132708,1.60725 -4.254592,-0.10252 -1.339674,-0.73367 -2.535925,-1.32816 -2.658336,-1.32107 -0.122412,0.006 -0.723342,1.033 -1.335402,2.27985 l -1.112834,2.26701 -1.627024,0.36118 c -1.61015,0.35745 -1.630256,0.35626 -1.938617,-0.11442 z m 35.283144,-57.8198 c 0.36629,-0.75616 0.66599,-1.39645 0.66599,-1.42288 0,-0.0264 -0.16231,-0.11037 -0.36068,-0.18644 -0.27735,-0.10636 -0.33358,-0.0349 -0.24341,0.31005 0.0703,0.2687 0.008,0.44845 -0.15445,0.44845 -0.33064,0 -1.294654,1.74199 -1.120214,2.02424 0.27062,0.43787 0.574834,0.14351 1.212764,-1.17342 z m -1.818074,-0.59667 c 0.42624,-0.94313 0.55922,-1.06775 1.041224,-0.9756 0.88834,0.16981 0.63727,-0.26155 -0.463504,-0.79635 -1.122935,-0.54556 -1.674947,-0.45479 -1.09971,0.18084 0.33466,0.3698 0.32749,0.46276 -0.09678,1.25437 -0.530031,0.98892 -0.579669,1.41798 -0.164058,1.41798 0.161795,0 0.514072,-0.48657 0.782838,-1.08124 z m -1.619383,-1.05656 c 0.856937,-0.21508 0.751778,-1.30213 -0.180974,-1.87086 -0.397839,-0.24255 -0.788899,-0.44139 -0.869022,-0.44185 -0.178796,-8.4e-4 -1.523573,2.35266 -1.523573,2.6666 0,0.39274 0.549004,0.24455 0.844009,-0.22784 0.361537,-0.57891 0.713959,-0.36674 0.713959,0.42981 0,0.8789 0.320165,1.09194 0.403541,0.26852 0.0521,-0.51445 0.206651,-0.72263 0.61206,-0.82438 z m -1.099064,-0.71055 c -0.196,-0.31715 0.251252,-0.78137 0.617419,-0.64085 0.502912,0.19299 0.445075,0.81841 -0.07569,0.81841 -0.237599,0 -0.48138,-0.0798 -0.541733,-0.17756 z m -1.546912,-0.72688 c 0.186708,-1.37929 0.167084,-1.5966 -0.159989,-1.77163 -0.287421,-0.15384 -0.668098,0.071 -1.662196,0.98153 -1.2864,1.17831 -1.371413,1.62982 -0.25407,1.34939 0.416816,-0.10466 0.638489,-0.004 0.956146,0.43133 0.658356,0.90351 0.891642,0.69719 1.120109,-0.99062 z m -1.164911,-0.007 c -0.08291,-0.13416 0.01131,-0.40601 0.209432,-0.6041 0.331868,-0.33187 0.360186,-0.31271 0.360186,0.24391 0,0.61466 -0.29648,0.80212 -0.569618,0.36019 z m 8.464284,-0.0343 c 0.15752,-0.91168 1.14761,-8.10226 1.34075,-9.73732 0.0795,-0.67327 0.18821,-1.38059 0.24152,-1.57184 0.0684,-0.24551 -0.29482,-0.53499 -1.23529,-0.98448 l -1.33223,-0.63676 -1.288254,1.20705 c -3.969907,3.71969 -6.738223,6.26534 -7.257854,6.67409 -0.323938,0.25481 -0.588978,0.55415 -0.588978,0.66517 0,0.2285 1.616143,1.10122 2.03928,1.10122 0.152065,0 0.610871,-0.32412 1.019569,-0.72023 l 0.743093,-0.72024 2.160874,1.10972 2.16088,1.10973 -0.075,1.15323 c -0.0739,1.13738 -0.0632,1.15945 0.77898,1.60377 1.12413,0.59307 1.14719,0.58856 1.29263,-0.25311 z m -3.166464,-5.59094 -1.392393,-0.70434 1.809353,-1.77667 c 1.685284,-1.65482 1.800674,-1.72939 1.682964,-1.08729 -0.0694,0.37914 -0.1961,1.4586 -0.2813,2.39879 -0.0852,0.94016 -0.21595,1.74642 -0.29056,1.79163 -0.0746,0.0452 -0.762254,-0.23473 -1.528064,-0.62212 z m -6.994507,4.63196 c 1.01473,0.0127 1.044013,-0.006 1.11155,-0.70521 0.05879,-0.60877 -0.043,-0.78678 -0.6677,-1.16766 -0.405385,-0.24715 -0.802032,-0.44974 -0.881437,-0.45019 -0.07939,-4.7e-4 -0.464131,0.61357 -0.85495,1.3645 -0.564242,1.08416 -0.649103,1.40387 -0.412051,1.55234 0.197529,0.12369 0.360093,0.0526 0.480469,-0.20992 0.138236,-0.30158 0.432228,-0.39375 1.224119,-0.38386 z m -0.480345,-0.70859 c -0.06454,-0.10434 -0.0339,-0.32488 0.06806,-0.48989 0.225724,-0.36524 0.973971,-0.12922 0.842468,0.26574 -0.111374,0.33451 -0.745812,0.49068 -0.910537,0.22415 z"
       id="path2288" /></g></svg>
