<?xml version="1.0" encoding="UTF-8" standalone="no"?>
<!-- Created with Inkscape (http://www.inkscape.org/) -->

<svg
   width="91.246986mm"
   height="91.246986mm"
   viewBox="0 0 91.246986 91.246986"
   version="1.1"
   id="svg1009"
   sodipodi:docname="YENI.svg"
   inkscape:version="1.2.2 (732a01da63, 2022-12-09)"
   xml:space="preserve"
   xmlns:inkscape="http://www.inkscape.org/namespaces/inkscape"
   xmlns:sodipodi="http://sodipodi.sourceforge.net/DTD/sodipodi-0.dtd"
   xmlns="http://www.w3.org/2000/svg"
   xmlns:svg="http://www.w3.org/2000/svg"><sodipodi:namedview
     id="namedview1011"
     pagecolor="#505050"
     bordercolor="#ffffff"
     borderopacity="1"
     inkscape:showpageshadow="0"
     inkscape:pageopacity="0"
     inkscape:pagecheckerboard="1"
     inkscape:deskcolor="#505050"
     inkscape:document-units="mm"
     showgrid="false"
     inkscape:zoom="1.0456808"
     inkscape:cx="68.376508"
     inkscape:cy="288.32891"
     inkscape:window-width="1920"
     inkscape:window-height="991"
     inkscape:window-x="-9"
     inkscape:window-y="-9"
     inkscape:window-maximized="1"
     inkscape:current-layer="layer1" /><defs
     id="defs1006"><clipPath
       clipPathUnits="userSpaceOnUse"
       id="clipPath80534"><g
         id="g80538"
         transform="matrix(2.8346528,0,0,-2.8346528,153.77903,694.22218)"><path
           d="M -54.249688,-52.093794 H 155.74993 V 244.90555 H -54.249688 Z"
           id="path80536"
           style="stroke-width:0.352777" /></g></clipPath></defs><g
     inkscape:label="Layer 1"
     inkscape:groupmode="layer"
     id="layer1"
     transform="translate(-42.403011,-106.2759)"><path
       style="fill:#ffffff;stroke-width:0.0908178"
       d="m 60.295453,176.03711 c -0.09836,-0.0984 -0.07205,-7.45952 0.02688,-7.52066 0.162874,-0.10066 5.534253,-0.0569 5.933638,0.0484 0.589588,0.15538 1.133005,0.51268 1.405329,0.92402 0.240285,0.36295 0.247715,0.41251 0.247715,1.65242 0,1.44441 -0.05594,1.63236 -0.621209,2.08733 l -0.348755,0.2807 -2.284963,0.0455 -2.284963,0.0454 -0.02527,1.24876 -0.02527,1.24873 H 61.33729 c -0.539715,0 -1.008543,-0.0272 -1.041843,-0.0606 z m 5.487555,-4.19526 c 0.132545,-0.16386 0.173425,-0.35952 0.173425,-0.83 0,-0.4705 -0.04088,-0.66614 -0.173425,-0.83001 -0.168979,-0.2089 -0.215538,-0.21513 -1.816357,-0.24283 l -1.642932,-0.0284 v 1.10128 1.10128 l 1.642932,-0.0284 c 1.600819,-0.0276 1.647378,-0.034 1.816357,-0.24284 z m 7.166401,4.13128 c 0,-0.10111 0.733223,-1.82022 1.322031,-3.09951 0.06897,-0.14985 0.53308,-1.192 1.031354,-2.31586 l 0.905957,-2.04341 1.217916,-0.0252 c 0.905024,-0.0187 1.241256,0.005 1.308762,0.0908 0.146152,0.18662 3.295766,7.24835 3.295766,7.38943 0,0.17419 -1.929943,0.18795 -2.06282,0.0147 -0.04788,-0.0624 -0.202396,-0.39018 -0.343356,-0.72831 l -0.25629,-0.61478 -1.903115,0.0245 -1.903116,0.0245 -0.239434,0.59132 c -0.131691,0.32524 -0.272498,0.64196 -0.312909,0.70384 -0.110783,0.16965 -2.060746,0.15828 -2.060746,-0.012 z m 5.721525,-2.90983 c 0,-0.0205 -0.208936,-0.52117 -0.464301,-1.11251 -0.255365,-0.59135 -0.525246,-1.21683 -0.599735,-1.38995 l -0.135435,-0.31479 -0.225421,0.54183 c -0.123981,0.29801 -0.385384,0.91948 -0.580896,1.38106 -0.195513,0.46157 -0.355476,0.86004 -0.355476,0.88547 0,0.0254 0.531285,0.0463 1.180632,0.0463 0.649347,0 1.180632,-0.0168 1.180632,-0.0374 z m 9.396935,2.92379 c -0.02463,-0.0642 -0.0341,-1.77183 -0.02105,-3.79473 l 0.02376,-3.67801 h 2.996989 2.996989 l 0.464966,0.24529 c 0.551455,0.29091 0.900636,0.67843 1.029536,1.14251 0.126,0.4537 0.12037,2.18675 -0.008,2.57194 -0.14892,0.4456 -0.51433,0.79739 -0.964636,0.92869 l -0.392245,0.11439 0.820848,1.14812 c 0.451473,0.63147 0.820843,1.21208 0.820843,1.29024 0,0.12067 -0.15421,0.14176 -1.021696,0.1397 l -1.021694,-0.002 -0.816569,-1.13987 c -0.449112,-0.62694 -0.861194,-1.17691 -0.915739,-1.22219 -0.05454,-0.0453 -0.513476,-0.10946 -1.019846,-0.14264 l -0.920672,-0.0604 -0.02536,1.26222 -0.02536,1.26222 -0.977956,0.0257 c -0.73209,0.0193 -0.989218,-0.003 -1.022752,-0.0909 z m 5.397104,-4.10384 c 0.162786,-0.14753 0.190909,-0.277 0.190909,-0.87888 0,-0.65441 -0.01742,-0.71961 -0.239291,-0.89411 -0.220601,-0.17352 -0.358929,-0.18823 -1.770949,-0.18823 h -1.531656 v 1.09568 1.09565 l 1.580039,-0.0285 c 1.402373,-0.0254 1.601503,-0.0481 1.770948,-0.20155 z M 104.34501,176.04 c -0.0349,-0.0349 -0.0634,-1.42571 -0.0634,-3.09071 v -3.02726 h -1.45309 c -0.79919,0 -1.45606,-0.0307 -1.45969,-0.0682 -0.0129,-0.13248 -0.0164,-0.97914 -0.005,-1.18063 l 0.0116,-0.20434 h 3.9544 3.95439 l -0.0265,0.70384 -0.0265,0.70384 -1.42917,0.0249 -1.42918,0.0249 -0.0239,3.0628 -0.0239,3.0628 -0.95827,0.0256 c -0.52704,0.0141 -0.98681,-0.002 -1.0217,-0.0378 z m 10.40199,-2.68959 0.024,-2.74724 0.77195,-0.0269 c 0.42457,-0.0147 0.86391,-0.005 0.97629,0.0245 l 0.20434,0.0512 v 2.72281 2.7228 h -1.00032 -1.00034 z m -0.0314,-3.62965 c -0.0102,-0.20353 -0.007,-0.91471 0.005,-1.13829 0.003,-0.0836 0.27,-0.11353 1.00861,-0.11353 h 1.00282 l -0.0265,0.70384 -0.0265,0.70384 -0.97629,0.0257 c -0.96122,0.0254 -0.97645,0.0226 -0.98631,-0.18164 z m 13.36024,-1.08004 c -1.26663,-0.31896 -5.11845,-1.07036 -7.35625,-1.43504 -6.83552,-1.11392 -13.35466,-1.7503 -22.613641,-2.2075 -3.11597,-0.15386 -16.319058,-0.15386 -19.435027,0 -9.218947,0.45523 -15.979891,1.11578 -22.613649,2.20942 -2.61081,0.43041 -6.114251,1.10645 -7.29818,1.40829 -0.972675,0.24797 -0.624281,0.0657 0.507433,-0.26543 7.70137,-2.25358 16.752262,-3.59094 29.358988,-4.33809 2.575929,-0.15267 13.85583,-0.21391 16.993695,-0.0922 12.822821,0.49709 23.512821,1.97985 31.892521,4.42365 0.78479,0.22887 1.44392,0.43239 1.46473,0.45229 0.0696,0.0665 -0.21377,0.0176 -0.90062,-0.15533 z m -9.53328,-5.03633 c -2.59597,-0.47895 -2.50921,-0.45742 -2.72944,-0.67765 -0.17699,-0.17699 -0.17933,-0.36002 -0.17933,-14.06038 0,-13.3324 0.007,-13.887 0.16609,-14.03137 0.1468,-0.13285 0.48379,-0.15029 2.90408,-0.15029 h 2.73799 l 0.13944,0.2128 c 0.12413,0.18945 0.13681,1.78247 0.11561,14.51691 -0.02,11.96459 -0.0442,14.32868 -0.14846,14.45429 -0.18083,0.21788 -0.58516,0.18232 -3.00598,-0.26431 z m -63.030195,-0.67534 c -0.178574,-0.17857 -0.181636,-0.30272 -0.181636,-7.36666 v -7.18505 l -0.644812,-1.60159 c -0.867266,-2.15412 -2.35245,-5.78229 -2.960523,-7.23229 -0.970768,-2.31489 -1.117337,-2.66605 -2.23645,-5.35826 -0.622902,-1.4985 -1.42282,-3.41588 -1.777596,-4.26085 -0.354774,-0.84496 -0.645044,-1.62534 -0.645044,-1.73417 0,-0.10878 0.07646,-0.26705 0.169925,-0.35164 0.153917,-0.13929 0.461746,-0.15131 3.267804,-0.12759 l 3.097878,0.0262 0.26407,0.27245 c 0.174431,0.17997 0.433538,0.71946 0.763321,1.58931 0.274587,0.72428 0.731465,1.92989 1.015281,2.67913 0.283817,0.74925 0.753106,1.97529 1.042865,2.72454 0.289758,0.74924 0.845629,2.21028 1.235269,3.24674 0.389642,1.03646 0.732118,1.88407 0.76106,1.88357 0.04609,-6.5e-4 3.87926,-9.52878 4.511913,-11.21512 0.146526,-0.39055 0.356584,-0.74954 0.544695,-0.93087 l 0.306193,-0.29516 h 2.771277 c 2.65019,0 2.779216,0.008 2.952916,0.18163 0.336062,0.33606 0.474855,-0.0685 -2.13421,6.22104 -0.43513,1.04894 -1.026538,2.47931 -1.314236,3.17861 -0.570137,1.38581 -1.402247,3.38497 -2.003461,4.81335 -0.210242,0.4995 -0.474891,1.13296 -0.588109,1.40768 -0.11322,0.27472 -0.39102,0.94904 -0.617335,1.4985 -0.226316,0.54944 -0.643149,1.55071 -0.926294,2.22503 l -0.514811,1.22605 -0.05062,6.73093 c -0.04505,5.98989 -0.06668,6.75217 -0.196507,6.92379 -0.156534,0.20693 -0.145326,0.20446 -3.369921,0.73642 -1.994994,0.32909 -2.296916,0.34029 -2.5429,0.0943 z m 53.537135,-0.5171 c -1.14884,-0.12275 -2.24096,-0.26224 -2.42692,-0.30998 -0.46866,-0.12027 -0.65004,-0.40386 -1.47498,-2.30613 -0.38991,-0.8991 -1.097,-2.51338 -1.57133,-3.58731 -0.47432,-1.07392 -1.07635,-2.443 -1.33782,-3.04239 -1.30898,-3.00072 -4.957701,-11.28109 -5.282471,-11.98796 -0.16344,-0.35577 -0.16783,-0.15155 -0.2123,9.87976 -0.0485,10.93721 -0.0246,10.38973 -0.45409,10.42711 -0.26718,0.0232 -2.066804,-0.0116 -3.490277,-0.0677 -1.310672,-0.0516 -1.464686,-0.0751 -1.636087,-0.24893 l -0.189214,-0.19198 0.0086,-16.34722 c 0.0047,-8.99097 0.03946,-16.44151 0.07726,-16.55676 0.03778,-0.11525 0.170032,-0.24807 0.293884,-0.29515 0.123849,-0.0471 1.411736,-0.0857 2.861965,-0.0857 3.213889,0 3.123219,-0.0251 3.592899,0.9914 0.17503,0.37881 1.26989,2.75257 2.433011,5.27504 1.70409,3.69567 4.01441,8.64235 5.34441,11.44304 l 0.19407,0.40869 0.0218,-8.90015 0.0218,-8.90016 0.19268,-0.15892 c 0.17363,-0.14325 0.45137,-0.15894 2.81279,-0.15894 2.57841,0 2.62306,0.003 2.80529,0.19876 0.18499,0.19857 0.18517,0.21573 0.18517,17.24534 0,16.10427 -0.009,17.05674 -0.15892,17.23037 -0.0875,0.10112 -0.24067,0.20297 -0.34058,0.22639 -0.0999,0.0234 -1.1216,-0.0579 -2.27045,-0.18063 z m -36.862962,-0.96403 -0.236139,-0.23615 V 145.02734 128.8429 l 0.225762,-0.38522 c 0.150534,-0.25688 0.35679,-0.44867 0.618989,-0.57559 0.389274,-0.18845 0.466918,-0.19037 7.720803,-0.19037 7.206483,0 7.330574,0.003 7.50921,0.18163 0.172828,0.17284 0.181634,0.30273 0.181634,2.67914 0,2.3764 -0.0088,2.5063 -0.181634,2.67912 -0.176917,0.17691 -0.302727,0.18164 -4.841399,0.18164 -3.584698,0 -4.695478,0.0262 -4.814574,0.11353 -0.142062,0.10415 -0.152842,0.40899 -0.130881,3.70082 l 0.02393,3.58731 3.8793,0.0454 c 3.288121,0.0385 3.89926,0.0662 4.010277,0.18164 0.106009,0.11026 0.136909,0.61472 0.162096,2.64641 0.02932,2.36522 0.02112,2.52127 -0.14189,2.70183 -0.170954,0.18938 -0.219698,0.19165 -4.109509,0.19165 h -3.936501 v 4.13819 c 0,4.12067 0.01931,4.40837 0.308754,4.60164 0.05496,0.0367 2.167645,0.0674 4.694857,0.0682 4.335159,0.001 4.603429,0.0113 4.745234,0.16748 0.132501,0.1464 0.150303,0.47446 0.150303,2.76994 0,2.42735 -0.01158,2.61543 -0.170735,2.77459 -0.160302,0.1603 -0.41975,0.1741 -4.245736,0.22574 -3.60857,0.0486 -5.673785,0.11138 -9.991772,0.30342 l -1.194244,0.0532 z M 115.8154,132.59588 c -0.17153,-0.17152 -0.18156,-0.30172 -0.18025,-2.33856 6.6e-4,-1.18631 0.0314,-2.20189 0.0682,-2.25685 0.18483,-0.2768 0.50084,-0.30875 3.0542,-0.30875 2.54819,0 2.59378,0.003 2.77592,0.19876 0.1756,0.18849 0.18517,0.31052 0.18517,2.36127 0,2.04141 -0.0102,2.17267 -0.18163,2.34413 -0.17342,0.17343 -0.30274,0.18163 -2.86076,0.18163 -2.55804,0 -2.68735,-0.008 -2.86077,-0.18163 z"
       id="path2266" /></g></svg>
