<?xml version="1.0" encoding="UTF-8" standalone="no"?>
<!-- Created with Inkscape (http://www.inkscape.org/) -->

<svg
   width="186.19901mm"
   height="177.28613mm"
   viewBox="0 0 186.19901 177.28613"
   version="1.1"
   id="svg4143"
   xml:space="preserve"
   inkscape:version="1.2.2 (732a01da63, 2022-12-09)"
   sodipodi:docname="manisa.svg"
   xmlns:inkscape="http://www.inkscape.org/namespaces/inkscape"
   xmlns:sodipodi="http://sodipodi.sourceforge.net/DTD/sodipodi-0.dtd"
   xmlns="http://www.w3.org/2000/svg"
   xmlns:svg="http://www.w3.org/2000/svg"><sodipodi:namedview
     id="namedview4145"
     pagecolor="#505050"
     bordercolor="#ffffff"
     borderopacity="1"
     inkscape:showpageshadow="0"
     inkscape:pageopacity="0"
     inkscape:pagecheckerboard="1"
     inkscape:deskcolor="#505050"
     inkscape:document-units="mm"
     showgrid="false"
     inkscape:zoom="0.73940797"
     inkscape:cx="139.97685"
     inkscape:cy="287.39209"
     inkscape:window-width="1920"
     inkscape:window-height="991"
     inkscape:window-x="-9"
     inkscape:window-y="-9"
     inkscape:window-maximized="1"
     inkscape:current-layer="layer1" /><defs
     id="defs4140" /><g
     inkscape:label="Layer 1"
     inkscape:groupmode="layer"
     id="layer1"
     transform="translate(8.1017623,-72.693454)"><path
       style="fill:#000000;stroke-width:0.264583"
       d="m 131.73774,248.90461 c -0.79807,-1.06898 -1.19025,-1.33687 -2.63248,-1.79821 -1.63874,-0.52419 -1.70083,-0.57657 -1.88006,-1.58612 -0.10195,-0.57422 -0.19222,-2.50597 -0.2006,-4.29279 l -0.0153,-3.24876 2.95928,-1.45236 c 1.62761,-0.79881 2.99377,-1.48686 3.03592,-1.52901 0.0421,-0.0421 0.32088,-3.63477 0.61938,-7.98361 0.29851,-4.34884 0.56945,-7.93157 0.6021,-7.96163 0.0326,-0.0301 2.88539,-1.24244 6.33943,-2.69418 l 6.28008,-2.63953 4.77037,6.75382 c 2.6237,3.71461 4.73876,6.78142 4.70013,6.81515 -0.0386,0.0337 -2.33242,0.98271 -5.09732,2.10886 -2.76489,1.12616 -5.22497,2.24142 -5.46684,2.47836 -0.24187,0.23695 -3.20442,4.35988 -6.58343,9.16206 -3.37902,4.80219 -6.22226,8.81963 -6.31831,8.92766 -0.0961,0.10801 -0.59663,-0.36886 -1.1124,-1.05971 z"
       id="Sarigol" /><path
       style="fill:#000000;stroke-width:0.264583"
       d="m 34.55896,118.07156 c 0.275206,-0.32742 1.999411,-2.14312 3.831569,-4.0349 6.667135,-6.88406 16.320551,-16.959136 17.238679,-17.991656 0.894077,-1.00548 0.95663,-1.20301 1.25241,-3.95501 l 0.31133,-2.89667 1.743059,-2.52729 c 2.856106,-4.14111 1.848414,-3.71791 8.852795,-3.71791 h 6.0393 v 4.81162 4.81162 l 1.08705,1.28918 c 0.59788,0.70905 1.04436,1.32394 0.99219,1.36643 -0.0522,0.0425 -2.48336,1.92707 -5.40263,4.18797 l -5.30776,4.110716 -1.01856,4.85863 c -0.56021,2.67224 -1.10873,4.96195 -1.21894,5.08824 -0.11021,0.12629 -1.430554,0.45561 -2.934097,0.73183 -7.94044,1.4587 -25.11025,4.46251 -25.507821,4.46251 -0.42327,0 -0.42005,-0.0463 0.04143,-0.59531 z"
       id="Kirkagac" /><path
       style="fill:#000000;stroke-width:0.264583"
       d="m 32.056927,117.6918 c -0.143658,-0.55512 -0.856813,-3.27149 -1.584788,-6.03639 -0.727977,-2.76489 -1.815608,-6.93208 -2.416958,-9.26041 -1.128763,-4.370386 -2.48598,-9.545096 -5.293178,-20.181506 -0.893969,-3.38723 -1.579933,-6.295 -1.524362,-6.46171 0.05557,-0.16671 2.75863,-0.92303 6.006801,-1.68072 l 5.905765,-1.37761 4.133218,3.71405 c 2.273268,2.04272 4.386109,3.93997 4.6952,4.2161 0.477094,0.42622 1.865985,0.63306 9.194285,1.36921 4.747765,0.47693 8.71071,0.94556 8.80655,1.0414 0.09584,0.0958 -0.693396,1.43737 -1.753851,2.98118 l -1.928106,2.80693 -0.360683,2.93055 c -0.288872,2.34708 -0.479637,3.06364 -0.958141,3.59906 -1.281583,1.434 -22.291244,23.187486 -22.470373,23.265906 -0.104597,0.0458 -0.307718,-0.37093 -0.451379,-0.92604 z"
       id="Soma" /><path
       style="fill:#000000;stroke-width:0.264583"
       d="m 55.648022,150.73299 c -2.87955,-2.15447 -6.842892,-5.11064 -8.807424,-6.56927 -20.906306,-15.52257 -21.50009,-15.98548 -21.10131,-16.45052 0.210992,-0.24605 1.808851,-2.18438 3.550793,-4.3074 2.65256,-3.23283 3.251664,-3.82877 3.687184,-3.66766 0.533246,0.19726 29.788023,-4.85036 30.532087,-5.26801 0.26298,-0.14762 0.75833,-1.94495 1.46832,-5.32778 l 1.07145,-5.10501 5.26674,-4.060896 c 2.89671,-2.23349 5.34726,-3.97224 5.44567,-3.86388 0.99103,1.0912 17.1749,22.088976 17.1749,22.283586 0,0.41914 -14.83751,31.85092 -15.23076,32.26484 -0.33302,0.35052 -15.931995,3.94958 -17.236816,3.97694 -0.354375,0.007 -2.650824,-1.53315 -5.820834,-3.90494 z"
       id="Akhisar" /><path
       style="fill:#000000;stroke-width:0.264583"
       d="m 93.142682,156.36723 c -1.52797,-0.33221 -3.13531,-0.74872 -3.57187,-0.92558 -0.43657,-0.17685 -1.72643,-0.35844 -2.86636,-0.40353 -2.3737,-0.0939 -3.04531,-0.44718 -5.41733,-2.84972 l -1.40452,-1.4226 7.3138,-15.58644 c 4.02259,-8.57254 7.42691,-15.70551 7.56514,-15.85103 0.24613,-0.25909 29.793748,-4.08565 29.994918,-3.88449 0.0562,0.0562 -0.23907,1.07229 -0.65619,2.25794 -0.41713,1.18564 -2.38302,6.91822 -4.36865,12.73905 -3.77504,11.06644 -3.71403,10.80413 -3.15202,13.55307 l 0.17441,0.85307 -2.68296,-0.90354 -2.68296,-0.90353 -2.57281,3.10885 -2.57281,3.10884 -3.28092,1.43729 -3.280918,1.43728 -1.13697,2.44965 c -1.32416,2.853 -0.99351,2.74369 -5.40098,1.78542 z"
       id="Gordes" /><path
       style="fill:#000000;stroke-width:0.264583"
       d="m 120.66049,161.30617 c 5.3e-4,-0.24104 0.30041,-3.04977 0.66619,-6.24162 l 0.66503,-5.80336 -0.86108,-0.94351 c -0.4736,-0.51894 -1.41725,-1.53883 -2.097,-2.26643 -1.02306,-1.09507 -1.3011,-1.61912 -1.61439,-3.04271 l -0.37847,-1.71979 2.17097,-6.35 c 1.19404,-3.4925 3.20715,-9.39226 4.47357,-13.11058 l 2.3026,-6.76057 4.54561,-0.87365 c 2.50009,-0.4805 6.60062,-1.27801 9.1123,-1.77223 2.51167,-0.49423 4.73037,-0.8986 4.93045,-0.8986 0.24617,0 0.42036,0.49182 0.53881,1.52136 0.72308,6.28492 1.55015,12.39582 1.69572,12.52902 0.096,0.0879 2.6749,-0.2329 5.73084,-0.71281 3.05594,-0.4799 5.79438,-0.87874 6.08542,-0.8863 0.4203,-0.0109 1.20956,1.21415 3.83646,5.95489 3.45843,6.24141 3.73286,6.82519 3.09301,6.57966 -0.21176,-0.0813 -2.72435,0.53541 -5.58355,1.37037 l -5.19854,1.51812 -7.4664,8.93243 c -7.35084,8.79419 -7.48776,8.93892 -8.84641,9.35095 -0.75901,0.23017 -4.86667,1.1911 -9.12813,2.13538 -4.26146,0.94429 -7.95647,1.76444 -8.21113,1.82255 -0.29742,0.0679 -0.46261,-0.0511 -0.46188,-0.33257 z"
       id="Demirci" /><path
       style="fill:#000000;stroke-width:0.264583"
       d="m 109.13124,166.13088 c -1.73214,-4.5633 -1.37885,-4.15671 -4.74384,-5.45948 -0.87316,-0.33805 -2.61948,-1.17713 -3.8807,-1.86463 l -2.293138,-1.24999 1.06682,-2.3356 1.066808,-2.3356 3.34306,-1.51519 3.34306,-1.5152 2.3443,-2.91126 c 1.74913,-2.17216 2.45444,-2.86845 2.77812,-2.74261 0.23861,0.0928 1.65158,0.59026 3.13995,1.10557 2.58671,0.89557 2.77169,1.01159 4.19187,2.6292 l 1.48574,1.69229 -0.7016,6.28122 c -0.40734,3.64676 -0.83384,6.40227 -1.01687,6.56982 -4.41423,4.04081 -7.57422,6.92303 -8.00691,7.3031 -0.54591,0.47951 -0.55362,0.46621 -2.11667,-3.65164 z"
       id="Koprubasi" /><path
       style="fill:#000000;stroke-width:0.264583"
       d="m 3.5812222,173.92239 c -1.15891,-0.44888 -1.448796,-0.72668 -2.338289,-2.24077 -1.00582403,-1.71212 -1.02036303,-1.77725 -1.54627803,-6.92666 -0.396596,-3.8832 -0.648612,-5.3671 -0.99617097,-5.86558 -0.726233,-1.04159 -6.629146,-10.8118 -6.797881,-11.25152 -0.202984,-0.52897 6.736772,-12.03306 7.43707197,-12.3285 0.923848,-0.38974 17.46083983,-3.38212 17.65393283,-3.19449 0.53332,0.51825 3.198624,7.11516 5.41642,13.40621 1.714379,4.86304 3.027529,8.09951 4.114345,10.14048 0.877964,1.64876 1.492266,3.08861 1.365115,3.19968 -2.028311,1.77173 -5.589439,4.1107 -9.094724,5.97347 -4.711399,2.50373 -10.9087368,6.80595 -12.3842098,8.59719 -0.983646,1.19416 -1.003681,1.19763 -2.829332,0.49049 z"
       id="Sehzadeler" /><path
       style="fill:#000000;stroke-width:0.264583"
       d="m 38.369518,174.08547 c -0.143095,-0.37636 -0.26017,-0.97192 -0.26017,-1.32346 0,-0.49394 -0.277693,-0.78029 -1.222195,-1.2603 -1.125778,-0.57214 -1.367097,-0.89084 -3.058949,-4.03997 -1.010213,-1.88035 -2.447972,-4.60945 -3.195023,-6.06466 -0.747049,-1.45521 -2.122036,-4.06749 -3.055528,-5.80507 -1.193318,-2.22122 -2.423634,-5.20643 -4.14369,-10.05416 -1.345541,-3.79222 -2.956695,-8.08556 -3.580344,-9.54077 -2.066163,-4.82114 -1.92128,-4.31025 -1.314469,-4.63501 0.295669,-0.15824 1.782538,-0.80929 3.304154,-1.44679 l 2.766571,-1.15909 4.831508,3.60078 c 2.657327,1.98043 7.8676,5.86392 11.578382,8.62996 3.710781,2.76605 9.501664,7.08058 12.86863,9.58785 3.366966,2.50726 6.189173,4.66775 6.271572,4.80107 0.0824,0.13333 -0.451056,1.21624 -1.18546,2.40648 l -1.335278,2.16406 3.819752,5.88472 c 2.100861,3.2366 3.904821,6.0334 4.008801,6.21511 0.12968,0.22664 -0.41901,0.60749 -1.74733,1.21282 l -1.936374,0.88244 -9.397477,-1.03776 -9.397479,-1.03775 -2.179717,1.3519 -2.179717,1.3519 z"
       id="Saruhanli" /><path
       style="fill:#000000;stroke-width:0.264583"
       d="m 69.933182,175.71786 c -1.32046,-0.5564 -1.48471,-0.74498 -3.72475,-4.27643 -1.28885,-2.03189 -3.494132,-5.45476 -4.900623,-7.60637 l -2.557251,-3.91203 1.098905,-1.77652 c 0.604398,-0.97708 1.232773,-1.92522 1.396389,-2.10697 0.163613,-0.18175 4.31963,-1.22587 9.23559,-2.32025 l 8.93811,-1.98979 2.1415,1.97052 c 1.87519,1.72549 2.30074,1.99244 3.42198,2.14665 0.70427,0.0969 1.28048,0.26307 1.28048,0.36935 0,0.10629 -0.89296,1.63276 -1.98437,3.39216 l -1.98438,3.19891 v 2.12757 2.12757 l -5.27836,4.64191 c -2.90311,2.55304 -5.37365,4.63153 -5.49011,4.61884 -0.11645,-0.0127 -0.83335,-0.28498 -1.59311,-0.60512 z"
       id="Golmarmara" /><path
       style="fill:#000000;stroke-width:0.264583"
       d="m 156.1323,177.32148 c -0.12588,-0.33107 -4.29124,-4.27482 -9.25637,-8.76388 -5.73751,-5.18739 -9.08715,-8.3996 -9.19118,-8.8141 -0.19122,-0.76187 0.12874,-1.02593 1.52992,-1.26266 0.89315,-0.1509 1.57925,-0.89391 8.5227,-9.22966 l 7.55135,-9.06555 4.76725,-1.36667 c 5.02931,-1.4418 5.71116,-1.57047 5.4895,-1.03594 -0.0754,0.1819 -0.28069,0.77016 -0.45611,1.30724 -0.31843,0.97489 -0.30833,0.99679 6.10344,13.22917 3.53231,6.73896 6.58431,12.51508 6.7822,12.83583 0.3384,0.54848 0.16043,0.81605 -2.99173,4.49791 -1.84335,2.15311 -3.37769,3.95171 -3.40964,3.9969 -0.032,0.0452 -3.31519,0.96708 -7.29608,2.04866 -3.9809,1.08158 -7.39063,2.02461 -7.57719,2.09561 -0.18656,0.071 -0.44219,-0.14178 -0.56806,-0.47286 z"
       id="Selendi" /><path
       style="fill:#000000;stroke-width:0.264583"
       d="m 30.501743,191.07058 c -0.922869,-0.24992 -2.27481,-1.37149 -7.51505,-6.23446 -7.022621,-6.51703 -6.103882,-5.91407 -13.1216168,-8.61162 -1.78263,-0.68522 -3.236674,-1.32515 -3.231211,-1.42206 0.06478,-1.149 6.8746608,-6.07752 12.6900658,-9.18421 2.401094,-1.2827 5.419114,-3.14415 6.706711,-4.13656 1.287598,-0.99241 2.418691,-1.80121 2.513542,-1.79734 0.09485,0.004 1.552482,2.65302 3.23918,5.88698 2.952568,5.66106 3.112069,5.90436 4.28493,6.53604 1.199391,0.64597 1.22069,0.6807 1.379122,2.24896 0.08851,0.87607 0.124817,4.73315 0.0807,8.5713 l -0.08022,6.97844 -1.984375,0.74516 c -2.142464,0.80452 -3.207277,0.89452 -4.961772,0.41937 z"
       id="Yunusemre" /><path
       style="fill:#000000;stroke-width:0.264583"
       d="m 66.022892,199.71562 c -1.50802,-0.18819 -1.98438,-0.36228 -1.98438,-0.72521 0,-0.20037 -0.52473,-0.82318 -1.16608,-1.38402 l -1.166084,-1.01973 -0.428921,-5.68854 c -0.428112,-5.67778 -0.431906,-5.69829 -2.007008,-10.84791 -0.867947,-2.83766 -1.578943,-5.19983 -1.579993,-5.24928 -0.0011,-0.0494 0.980355,-0.01 2.180902,0.0886 2.14258,0.1752 2.221502,0.16004 4.281984,-0.82248 1.15455,-0.55053 2.1392,-0.88805 2.18812,-0.75004 0.0489,0.138 0.42459,0.78523 0.83481,1.43829 0.64052,1.01965 1.00418,1.28509 2.57439,1.8791 1.48336,0.56116 1.97834,0.90303 2.62226,1.81116 l 0.79375,1.11943 0.0628,4.67439 0.0628,4.67438 -2.34942,1.98099 -2.34943,1.981 -0.43784,2.7815 c -0.6323,4.01689 -0.68722,4.24084 -1.02916,4.19707 -0.17033,-0.0218 -0.66689,-0.0842 -1.10345,-0.13869 z"
       id="Ahmetli" /><path
       style="fill:#000000;stroke-width:0.264583"
       d="m 146.28591,204.19854 c -1.13028,-0.0901 -1.43209,-0.28754 -3.76946,-2.46585 l -2.5408,-2.3679 -1.65451,-0.006 -1.6545,-0.006 -3.02163,-2.35581 -3.02162,-2.35581 -3.19608,-0.56546 c -1.75785,-0.311 -3.41657,-0.65148 -3.68605,-0.75662 -0.44823,-0.17487 -0.48667,-0.51873 -0.45134,-4.03711 l 0.0386,-3.84595 -2.00732,-1.64751 c -1.10403,-0.90612 -2.19231,-1.71849 -2.41839,-1.80524 -0.30388,-0.11661 -0.36803,-0.37206 -0.246,-0.97956 0.16166,-0.80486 0.45652,-2.45113 2.01905,-11.27286 l 0.77325,-4.36563 -0.78031,-1.11595 c -0.42916,-0.61377 -0.66776,-1.1855 -0.53021,-1.27051 0.13755,-0.085 3.73404,-0.92596 7.99218,-1.86877 4.25815,-0.94281 7.89438,-1.76765 8.08051,-1.83298 0.20692,-0.0726 0.39889,0.18362 0.49408,0.65956 0.12096,0.60479 2.21352,2.64657 9.38502,9.15725 5.07615,4.6084 9.22936,8.54089 9.22936,8.73887 0,0.19798 -0.41912,0.62894 -0.93137,0.9577 -0.51226,0.32876 -0.98221,0.83587 -1.04434,1.12691 -0.0621,0.29105 -0.71531,5.5298 -1.4515,11.64167 -0.73619,6.11188 -1.40273,11.49945 -1.48119,11.9724 -0.14095,0.84953 -0.15926,0.85932 -1.51974,0.8122 -0.75739,-0.0262 -1.92996,-0.0918 -2.60572,-0.14564 z"
       id="Kula" /><path
       style="fill:#000000;stroke-width:0.264583"
       d="m 51.92426,208.96838 -3.463941,-2.85672 -1.934339,-4.82278 -1.93434,-4.82278 -5.005991,-2.23245 -5.005994,-2.23244 0.995458,-0.41593 c 0.547502,-0.22876 1.476222,-0.55997 2.063824,-0.73602 l 1.068367,-0.32009 -0.188437,-5.19861 c -0.103637,-2.85924 -0.104354,-6.16247 -0.0016,-7.34052 l 0.186841,-2.1419 2.182725,-1.33855 c 1.240621,-0.76081 2.499029,-1.33855 2.915568,-1.33855 0.919068,0 12.660951,1.33249 12.7786,1.45014 0.04759,0.0476 0.804596,2.44945 1.682229,5.33746 1.587405,5.22365 1.598248,5.28188 2.086028,11.20407 l 0.490329,5.95312 1.07029,0.93326 c 0.588661,0.51329 1.070295,1.01931 1.070295,1.12448 0,0.10517 -1.007446,0.19122 -2.238764,0.19122 h -2.238746 l -0.254143,0.99219 c -0.139777,0.5457 -0.751581,3.25437 -1.359567,6.01927 -0.607983,2.76489 -1.194374,5.12198 -1.303086,5.23797 -0.108714,0.11598 -1.756436,-1.07464 -3.661606,-2.64584 z"
       id="Turgutlu" /><path
       style="fill:#000000;stroke-width:0.264583"
       d="m 95.259352,212.65267 c -0.50933,-0.055 -3.36333,-0.29941 -6.34224,-0.54313 l -5.41619,-0.44313 -1.85985,-4.55515 c -1.02291,-2.50533 -1.97891,-4.66002 -2.12443,-4.7882 -0.14552,-0.12818 -2.6756,-0.69185 -5.6224,-1.2526 -6.21301,-1.18228 -5.66154,-0.61249 -4.84255,-5.00339 l 0.49172,-2.63627 2.44651,-2.26721 2.44652,-2.2672 -0.13728,-4.78816 -0.13729,-4.78815 -0.83492,-1.21352 -0.83492,-1.21352 5.25483,-4.57298 5.25484,-4.57298 0.18207,-2.46211 c 0.1817,-2.45704 0.18568,-2.46791 1.93499,-5.29166 0.96411,-1.55626 2.02518,-3.11689 2.35795,-3.46807 l 0.60502,-0.63852 1.42856,0.54668 c 0.78571,0.30068 2.84716,0.81221 4.581,1.13673 2.78186,0.52069 3.52566,0.78501 6.327428,2.24857 1.74625,0.91219 3.8918,1.91437 4.76788,2.22706 l 1.59287,0.56853 1.55074,4.0842 c 1.49865,3.94702 1.95435,4.77281 2.52699,4.57933 0.1484,-0.0501 2.07383,-1.75158 4.27873,-3.781 l 4.00892,-3.68984 0.62364,0.77942 c 0.7365,0.92048 0.73121,0.84852 0.24502,3.33082 -0.20968,1.07059 -0.82359,4.5659 -1.36424,7.76736 l -0.98299,5.82083 -4.35725,6.87917 c -2.3965,3.78354 -4.74344,7.47448 -5.21545,8.20208 -0.472,0.72761 -2.85206,4.47808 -5.28901,8.33438 -2.43696,3.8563 -4.566018,7.14512 -4.731248,7.30849 -0.37461,0.37038 -1.59845,0.55441 -2.81397,0.42314 z"
       id="Salihli" /><path
       style="fill:#000000;stroke-width:0.264583"
       d="m 122.65148,244.98515 c -2.51799,-0.85872 -3.84326,-1.17036 -4.97696,-1.17036 h -1.54513 l 0.14267,-1.78594 c 0.0785,-0.98226 0.21351,-4.16719 0.30011,-7.0776 l 0.15744,-5.29167 -8.88305,-8.32663 c -4.88568,-4.57964 -8.883048,-8.40792 -8.883048,-8.50728 0,-0.0994 4.273978,-6.88941 9.497738,-15.08899 6.11148,-9.59303 9.64166,-14.89646 9.90142,-14.87501 0.22203,0.0183 1.18521,0.67318 2.1404,1.45521 l 1.73671,1.42187 0.004,4.14936 c 0.003,3.72475 0.0509,4.16248 0.46656,4.2776 0.25466,0.0705 2.04853,0.39466 3.98636,0.72029 l 3.52335,0.59205 3.13722,2.47254 3.13724,2.47253 h 1.63808 1.63808 l 2.25948,2.13879 c 1.24271,1.17633 2.50894,2.2324 2.81384,2.34683 0.30491,0.11443 1.58276,0.29264 2.83968,0.39603 l 2.28531,0.18798 -1.33262,3.35216 c -0.73294,1.84369 -1.46367,3.48467 -1.62385,3.64661 -0.16018,0.16194 -3.26779,1.52286 -6.90582,3.02426 -3.63802,1.50141 -6.67343,2.77714 -6.74536,2.83496 -0.0719,0.0578 -0.36958,3.6905 -0.66146,8.07262 l -0.53069,7.9675 -3.1497,1.55165 -3.14971,1.55165 0.16356,4.35094 c 0.09,2.39302 0.13811,4.34182 0.107,4.33067 -0.0311,-0.0111 -1.60089,-0.54693 -3.48839,-1.19062 z"
       id="Alasehir" /></g></svg>
