<?xml version="1.0" encoding="UTF-8" standalone="no"?>
<!-- Created with Inkscape (http://www.inkscape.org/) -->

<svg
   width="232.71245mm"
   height="177.41977mm"
   viewBox="0 0 232.71245 177.41977"
   version="1.1"
   id="svg9895"
   xml:space="preserve"
   inkscape:version="1.2.2 (732a01da63, 2022-12-09)"
   sodipodi:docname="mus.svg"
   xmlns:inkscape="http://www.inkscape.org/namespaces/inkscape"
   xmlns:sodipodi="http://sodipodi.sourceforge.net/DTD/sodipodi-0.dtd"
   xmlns="http://www.w3.org/2000/svg"
   xmlns:svg="http://www.w3.org/2000/svg"><sodipodi:namedview
     id="namedview9897"
     pagecolor="#505050"
     bordercolor="#ffffff"
     borderopacity="1"
     inkscape:showpageshadow="0"
     inkscape:pageopacity="0"
     inkscape:pagecheckerboard="1"
     inkscape:deskcolor="#505050"
     inkscape:document-units="mm"
     showgrid="false"
     inkscape:zoom="0.73940797"
     inkscape:cx="246.81909"
     inkscape:cy="261.69585"
     inkscape:window-width="1920"
     inkscape:window-height="991"
     inkscape:window-x="-9"
     inkscape:window-y="-9"
     inkscape:window-maximized="1"
     inkscape:current-layer="layer1" /><defs
     id="defs9892" /><g
     inkscape:label="Layer 1"
     inkscape:groupmode="layer"
     id="layer1"
     transform="translate(36.406012,-136.81074)"><path
       style="fill:#ffffff;stroke-width:0.264583"
       d="m -1.1183483,313.53191 c -1.2332838,-0.59812 -1.6247931,-0.93304 -1.7546347,-1.50104 -0.091921,-0.40212 -0.1812184,-3.86243 -0.1984375,-7.68958 -0.024289,-5.39845 -0.1143291,-7.11862 -0.4016428,-7.67292 -0.2036894,-0.39295 -7.6969277,-12.19615 -16.6516457,-26.22932 l -16.281303,-25.51487 8.085615,-12.05597 c 4.447089,-6.63078 8.223189,-12.20411 8.391335,-12.38517 0.235131,-0.25318 11.0559667,-0.54335 46.864466,-1.25667 25.607312,-0.51011 46.649539,-0.92752 46.760503,-0.92757 0.110966,-6e-5 -0.09739,0.47379 -0.463021,1.05298 -0.365625,0.57919 -0.664776,1.21895 -0.664776,1.42169 0,0.20274 0.815464,1.4255 1.812142,2.71724 l 1.812142,2.34862 0.159311,5.66685 0.159308,5.66686 0.806675,1.12327 c 0.443669,0.6178 0.805936,1.22287 0.805034,1.3446 -0.0027,0.36548 -11.2532,17.90767 -11.547893,18.0059 -0.22389,0.0746 -8.008591,-4.84084 -8.606951,-5.43466 -0.09924,-0.0985 -0.277837,-1.90417 -0.396875,-4.01261 -0.174996,-3.09956 -0.29327,-3.84819 -0.617747,-3.91012 -0.22072,-0.0421 -1.768533,0.91758 -3.439583,2.13267 l -3.038271,2.20926 -0.07502,2.50201 -0.07502,2.50201 2.723124,2.53225 2.723121,2.53226 0.741386,5.21015 0.741384,5.21015 -0.611365,0.50144 c -0.336249,0.27579 -1.775706,1.37228 -3.198792,2.43665 l -2.587429,1.93522 -5.152646,10.25331 -5.152644,10.2533 0.814411,2.93417 c 0.447924,1.61379 0.749289,2.99928 0.6697,3.07887 -0.130519,0.13052 -15.210285,1.89029 -16.396375,1.91342 -0.273314,0.005 -2.285174,1.77043 -4.497916,3.94625 l -4.003421,3.93661 -8.069792,1.92125 c -4.4383854,1.05669 -8.18885417,1.95498 -8.334375,1.9962 -0.14552083,0.0412 -0.97895833,-0.27151 -1.8520833,-0.69496 z"
       id="Merkez" /><path
       style="fill:#ffffff;stroke-width:0.264583"
       d="m -19.911201,218.49714 c -0.0824,-0.32742 -3.332695,-11.66813 -7.222889,-25.20156 l -7.07308,-24.60625 2.486253,-4.36563 c 1.367439,-2.40109 2.596595,-4.48392 2.731456,-4.6285 0.139603,-0.14967 7.046512,-0.61394 16.03789,-1.07805 l 15.7926858,-0.81517 20.2798782,18.05435 20.279882,18.05435 9.186973,1.62931 c 5.052835,0.89612 9.39595,1.71022 9.651365,1.80911 0.255416,0.0989 3.399417,2.90975 6.98667,6.24634 5.663768,5.268 6.559886,6.20831 6.807978,7.14375 0.157133,0.59247 0.615442,2.29761 1.018466,3.7892 0.403023,1.49159 0.719809,2.71485 0.703963,2.71837 -0.125235,0.0278 -94.128947,1.83867 -95.604493,1.84173 -1.764855,0.004 -1.924804,-0.0422 -2.062998,-0.59135 z"
       id="Varto" /><path
       style="fill:#ffffff;stroke-width:0.264583"
       d="m 161.24779,237.4043 c 0.58776,-1.26751 1.77654,-3.84111 2.64172,-5.71911 l 1.57306,-3.41455 -0.28729,-2.53858 c -0.158,-1.39621 -0.3532,-2.87216 -0.43376,-3.27989 -0.10502,-0.53151 -6.44047,-7.19647 -22.38372,-23.54792 -12.23047,-12.54362 -23.55351,-24.14112 -25.16229,-25.77221 -2.89845,-2.93863 -2.92057,-2.97057 -2.43117,-3.51136 0.31763,-0.35097 0.80331,-1.9838 1.36084,-4.57501 l 0.86695,-4.02926 -1.19613,-4.05864 -1.19612,-4.05863 1.53984,-1.98651 c 0.84692,-1.09258 1.72172,-2.21666 1.94402,-2.49796 0.28029,-0.3547 5.63232,-2.21073 17.4625,-6.05582 9.38208,-3.0494 17.12778,-5.54604 17.21267,-5.54809 0.0849,-0.002 0.15434,0.16254 0.15434,0.36575 0,0.34193 9.71406,22.53068 33.77718,77.15344 l 9.61601,21.82813 -0.69385,0.15345 c -0.38161,0.0844 -5.30705,0.85244 -10.94542,1.70676 l -10.25158,1.55331 -3.14357,-1.55435 -3.14357,-1.55436 -2.73485,1.13196 c -1.50418,0.62258 -3.29278,1.35292 -3.97467,1.62298 l -1.23981,0.49103 z"
       id="Malazgirt" /><path
       style="fill:#ffffff;stroke-width:0.264583"
       d="m 93.867068,245.13628 c -7.13052,-2.83235 -13.381302,-5.33275 -13.890625,-5.55642 -0.509323,-0.22368 -1.283229,-0.9065 -1.719791,-1.51736 l -0.79375,-1.11067 -0.132292,-5.69881 -0.132292,-5.69881 -1.832252,-2.34575 -1.832251,-2.34577 0.509334,-0.94636 c 0.455115,-0.84562 0.718243,-1.00323 2.471706,-1.48044 1.079304,-0.29373 2.014622,-0.69088 2.078484,-0.88254 0.06386,-0.19166 -0.34295,-2.13793 -0.904036,-4.32503 l -1.020151,-3.97655 -6.68073,-6.23759 c -3.674401,-3.43067 -6.680729,-6.267 -6.680729,-6.30294 0,-0.036 3.184922,-1.70122 7.077605,-3.70061 3.892682,-1.99939 15.172925,-7.79457 25.067209,-12.87817 11.950313,-6.13997 18.105983,-9.16812 18.336263,-9.0201 0.19066,0.12254 11.51941,11.69497 25.17501,25.71651 l 24.82835,25.4937 0.31797,2.95193 0.31798,2.95192 -2.73333,5.91348 -2.73333,5.91349 -1.19405,-0.13544 c -0.65673,-0.0745 -6.49233,-0.57925 -12.96801,-1.12168 l -11.77396,-0.98624 -12.7,6.25046 c -6.985,3.43775 -12.87859,6.24485 -13.09687,6.23799 -0.21828,-0.007 -6.23094,-2.32984 -13.361462,-5.1622 z"
       id="Bulanik" /><path
       style="fill:#ffffff;stroke-width:0.264583"
       d="m 85.797277,277.2855 c -5.02756,-0.47405 -11.404301,-1.03593 -24.077084,-2.12154 -3.419739,-0.29295 -6.932083,-0.61903 -7.805208,-0.72464 l -1.5875,-0.192 2.357207,-1.84671 c 1.296467,-1.01568 2.637423,-2.08483 2.979907,-2.37587 l 0.622697,-0.52916 -0.80101,-5.55625 -0.801008,-5.55625 -2.621208,-2.51355 -2.621211,-2.51354 -0.179396,-2.00049 -0.179398,-2.00049 2.299957,-1.67103 c 1.264975,-0.91906 2.497246,-1.68572 2.738376,-1.70367 0.380085,-0.0283 0.456023,0.40742 0.570712,3.27464 l 0.132292,3.30729 4.887634,3.24354 c 2.688199,1.78394 5.009111,3.20303 5.157581,3.15354 0.148474,-0.0495 2.890132,-4.20812 6.092577,-9.24141 3.202442,-5.03328 5.893017,-9.22152 5.979051,-9.3072 0.146355,-0.14573 2.422835,0.7328 20.693872,7.98618 l 7.091973,2.81543 -0.1615,0.93954 c -0.0888,0.51675 -0.4227,2.01096 -0.74196,3.32046 l -0.58048,2.3809 -8.731248,0.86919 -8.73125,0.86919 -1.7926,1.78593 -1.792602,1.78593 3.082845,5.01814 c 1.695567,2.75998 3.520139,5.73252 4.054602,6.60564 0.534466,0.87313 1.18794,1.91492 1.452163,2.31511 l 0.480409,0.7276 -1.154908,-0.029 c -0.635202,-0.0159 -3.476628,-0.2479 -6.314284,-0.51546 z"
       id="Korkut" /><path
       style="fill:#ffffff;stroke-width:0.264583"
       d="m 42.834092,299.18525 c -0.218413,-0.75859 -0.595429,-2.09873 -0.837811,-2.97808 l -0.440693,-1.59882 4.780368,-9.55786 c 2.629201,-5.25683 4.874284,-9.61477 4.989073,-9.68433 0.114789,-0.0695 2.054175,0.037 4.309748,0.23681 4.10655,0.36375 11.597375,1.01051 22.754166,1.96462 9.974922,0.85304 14.625021,1.30544 14.755072,1.43549 0.119671,0.11967 -1.802336,2.37703 -10.953755,12.86501 l -4.284292,4.91001 -4.190283,0.46185 c -2.304656,0.25401 -6.39294,0.6908 -9.085075,0.97063 -12.520316,1.30142 -20.036152,2.11042 -20.687721,2.22681 -0.661741,0.11821 -0.739542,0.0303 -1.108797,-1.25214 z"
       id="Haskoy" /></g></svg>
